<?xml version="1.0" encoding="UTF-8"?>
<svg xmlns="http://www.w3.org/2000/svg" xmlns:xlink="http://www.w3.org/1999/xlink" width="487.6pt" height="196.6pt" viewBox="0 0 487.6 196.6" version="1.1">
<defs>
<clipPath id="clip1">
  <path d="M 33 158 L 457 158 L 457 196.601563 L 33 196.601563 Z M 33 158 "/>
</clipPath>
<clipPath id="clip2">
  <path d="M 0 0 L 487.601563 0 L 487.601563 147 L 0 147 Z M 0 0 "/>
</clipPath>
</defs>
<g id="surface1">
<path style=" stroke:none;fill-rule:evenodd;fill:rgb(30.979919%,66.209412%,12.939453%);fill-opacity:1;" d="M 203.488281 122.601563 L 203.488281 95.371094 L 210.667969 95.371094 L 210.667969 105.960938 L 220.238281 105.960938 L 220.238281 95.371094 L 227.421875 95.371094 L 227.421875 122.601563 L 220.238281 122.601563 L 220.238281 111.519531 L 210.667969 111.519531 L 210.667969 122.601563 Z M 249.273438 113.257813 C 249.273438 111.863281 248.929688 110.757813 248.246094 109.953125 C 247.566406 109.144531 246.640625 108.738281 245.480469 108.738281 C 244.308594 108.738281 243.378906 109.144531 242.699219 109.953125 C 242.023438 110.757813 241.6875 111.863281 241.6875 113.257813 C 241.6875 114.660156 242.023438 115.765625 242.691406 116.566406 C 243.363281 117.367188 244.292969 117.765625 245.480469 117.765625 C 246.652344 117.765625 247.578125 117.367188 248.257813 116.566406 C 248.933594 115.765625 249.273438 114.660156 249.273438 113.257813 Z M 255.640625 113.257813 C 255.640625 114.609375 255.382813 115.898438 254.875 117.113281 C 254.367188 118.332031 253.628906 119.421875 252.652344 120.386719 C 251.671875 121.351563 250.574219 122.085938 249.359375 122.582031 C 248.136719 123.078125 246.847656 123.324219 245.480469 123.324219 C 244.085938 123.324219 242.785156 123.078125 241.570313 122.582031 C 240.347656 122.085938 239.261719 121.351563 238.304688 120.386719 C 237.339844 119.441406 236.613281 118.363281 236.109375 117.144531 C 235.605469 115.917969 235.351563 114.625 235.351563 113.257813 C 235.351563 111.886719 235.605469 110.59375 236.101563 109.375 C 236.597656 108.164063 237.328125 107.070313 238.304688 106.097656 C 239.25 105.148438 240.332031 104.421875 241.550781 103.941406 C 242.765625 103.457031 244.074219 103.21875 245.480469 103.21875 C 246.882813 103.21875 248.191406 103.457031 249.402344 103.941406 C 250.609375 104.421875 251.695313 105.148438 252.652344 106.097656 C 253.640625 107.082031 254.382813 108.179688 254.886719 109.394531 C 255.390625 110.605469 255.640625 111.902344 255.640625 113.257813 Z M 261.445313 121.039063 L 262.777344 115.976563 C 263.714844 116.820313 264.742188 117.46875 265.863281 117.925781 C 266.988281 118.375 268.117188 118.601563 269.25 118.601563 C 270.054688 118.601563 270.667969 118.46875 271.085938 118.203125 C 271.507813 117.9375 271.71875 117.550781 271.71875 117.042969 C 271.71875 116.210938 270.871094 115.589844 269.179688 115.175781 C 268.625 115.042969 268.175781 114.921875 267.847656 114.828125 C 265.925781 114.28125 264.539063 113.5625 263.667969 112.675781 C 262.800781 111.792969 262.367188 110.636719 262.367188 109.230469 C 262.367188 107.402344 263.027344 105.945313 264.355469 104.855469 C 265.679688 103.765625 267.472656 103.21875 269.734375 103.21875 C 270.902344 103.21875 272.085938 103.359375 273.289063 103.636719 C 274.492188 103.917969 275.726563 104.347656 276.984375 104.933594 L 275.652344 109.5 C 274.804688 108.90625 273.941406 108.449219 273.0625 108.136719 C 272.183594 107.824219 271.3125 107.671875 270.4375 107.671875 C 269.707031 107.671875 269.152344 107.792969 268.777344 108.027344 C 268.40625 108.265625 268.21875 108.605469 268.21875 109.050781 C 268.21875 109.71875 269.0625 110.28125 270.742188 110.746094 C 271.128906 110.855469 271.417969 110.9375 271.609375 110.988281 C 273.824219 111.640625 275.363281 112.414063 276.234375 113.296875 C 277.101563 114.1875 277.535156 115.386719 277.535156 116.894531 C 277.535156 118.8125 276.824219 120.367188 275.394531 121.546875 C 273.96875 122.734375 272.082031 123.324219 269.734375 123.324219 C 268.140625 123.324219 266.660156 123.136719 265.292969 122.761719 C 263.925781 122.378906 262.640625 121.808594 261.445313 121.039063 Z M 290.488281 113.273438 C 290.488281 114.730469 290.855469 115.886719 291.59375 116.730469 C 292.328125 117.574219 293.347656 117.992188 294.644531 117.992188 C 295.9375 117.992188 296.964844 117.574219 297.710938 116.730469 C 298.460938 115.886719 298.835938 114.730469 298.835938 113.273438 C 298.835938 111.8125 298.460938 110.65625 297.71875 109.8125 C 296.976563 108.96875 295.949219 108.550781 294.644531 108.550781 C 293.347656 108.550781 292.328125 108.96875 291.59375 109.8125 C 290.855469 110.65625 290.488281 111.8125 290.488281 113.273438 Z M 284.804688 130.902344 L 284.804688 103.828125 L 290.703125 103.828125 L 290.703125 106.988281 C 291.519531 105.71875 292.433594 104.773438 293.453125 104.152344 C 294.472656 103.527344 295.601563 103.21875 296.847656 103.21875 C 299.398438 103.21875 301.429688 104.117188 302.941406 105.921875 C 304.449219 107.730469 305.207031 110.175781 305.207031 113.257813 C 305.207031 116.261719 304.457031 118.691406 302.953125 120.546875 C 301.449219 122.398438 299.484375 123.324219 297.066406 123.324219 C 295.535156 123.324219 294.28125 123.035156 293.316406 122.449219 C 292.355469 121.871094 291.496094 120.914063 290.742188 119.574219 C 290.800781 119.941406 290.84375 120.398438 290.875 120.925781 C 290.90625 121.460938 290.917969 122.121094 290.917969 122.898438 L 290.917969 130.902344 Z M 312.746094 97.960938 C 312.746094 96.960938 313.089844 96.109375 313.78125 95.40625 C 314.46875 94.699219 315.296875 94.34375 316.273438 94.34375 C 317.28125 94.34375 318.121094 94.695313 318.796875 95.386719 C 319.476563 96.078125 319.816406 96.933594 319.816406 97.960938 C 319.816406 98.992188 319.472656 99.859375 318.777344 100.578125 C 318.089844 101.292969 317.253906 101.65625 316.273438 101.65625 C 315.3125 101.65625 314.480469 101.289063 313.789063 100.558594 C 313.09375 99.828125 312.746094 98.964844 312.746094 97.960938 Z M 313.078125 103.828125 L 319.484375 103.828125 L 319.484375 122.601563 L 313.078125 122.601563 Z M 329.191406 122.601563 L 329.191406 108.511719 L 326.464844 108.511719 L 326.464844 103.828125 L 329.191406 103.828125 L 329.191406 98.230469 L 335.488281 98.230469 L 335.488281 103.828125 L 338.210938 103.828125 L 338.210938 108.511719 L 335.488281 108.511719 L 335.488281 122.601563 Z M 358.847656 113.195313 C 358.847656 111.730469 358.472656 110.574219 357.71875 109.71875 C 356.964844 108.859375 355.933594 108.433594 354.625 108.433594 C 353.316406 108.433594 352.292969 108.859375 351.542969 109.710938 C 350.796875 110.554688 350.421875 111.722656 350.421875 113.195313 C 350.421875 114.65625 350.796875 115.8125 351.550781 116.65625 C 352.304688 117.5 353.332031 117.917969 354.625 117.917969 C 355.933594 117.917969 356.964844 117.5 357.71875 116.65625 C 358.472656 115.8125 358.847656 114.65625 358.847656 113.195313 Z M 364.488281 103.828125 L 364.488281 122.601563 L 358.597656 122.601563 L 358.597656 119.554688 C 357.753906 120.855469 356.816406 121.808594 355.765625 122.417969 C 354.71875 123.019531 353.484375 123.324219 352.074219 123.324219 C 349.648438 123.324219 347.714844 122.410156 346.261719 120.582031 C 344.8125 118.753906 344.089844 116.300781 344.089844 113.226563 C 344.089844 110.160156 344.847656 107.730469 346.363281 105.921875 C 347.882813 104.117188 349.917969 103.21875 352.484375 103.21875 C 353.851563 103.21875 355.03125 103.523438 356.019531 104.125 C 357.007813 104.726563 357.851563 105.65625 358.558594 106.910156 L 358.558594 103.828125 Z M 373.316406 93.773438 L 379.722656 93.773438 L 379.722656 122.601563 L 373.316406 122.601563 Z M 386.742188 121.039063 L 388.074219 115.976563 C 389.011719 116.820313 390.035156 117.46875 391.160156 117.925781 C 392.28125 118.375 393.414063 118.601563 394.546875 118.601563 C 395.351563 118.601563 395.964844 118.46875 396.382813 118.203125 C 396.804688 117.9375 397.015625 117.550781 397.015625 117.042969 C 397.015625 116.210938 396.167969 115.589844 394.472656 115.175781 C 393.921875 115.042969 393.472656 114.921875 393.140625 114.828125 C 391.222656 114.28125 389.835938 113.5625 388.964844 112.675781 C 388.097656 111.792969 387.660156 110.636719 387.660156 109.230469 C 387.660156 107.402344 388.324219 105.945313 389.648438 104.855469 C 390.976563 103.765625 392.769531 103.21875 395.03125 103.21875 C 396.199219 103.21875 397.382813 103.359375 398.585938 103.636719 C 399.789063 103.917969 401.023438 104.347656 402.28125 104.933594 L 400.949219 109.5 C 400.101563 108.90625 399.234375 108.449219 398.359375 108.136719 C 397.480469 107.824219 396.609375 107.671875 395.730469 107.671875 C 395 107.671875 394.449219 107.792969 394.074219 108.027344 C 393.699219 108.265625 393.515625 108.605469 393.515625 109.050781 C 393.515625 109.71875 394.355469 110.28125 396.039063 110.746094 C 396.425781 110.855469 396.714844 110.9375 396.902344 110.988281 C 399.121094 111.640625 400.660156 112.414063 401.53125 113.296875 C 402.398438 114.1875 402.832031 115.386719 402.832031 116.894531 C 402.832031 118.8125 402.121094 120.367188 400.691406 121.546875 C 399.265625 122.734375 397.375 123.324219 395.03125 123.324219 C 393.4375 123.324219 391.957031 123.136719 390.589844 122.761719 C 389.21875 122.378906 387.9375 121.808594 386.742188 121.039063 Z M 386.742188 121.039063 "/>
<g clip-path="url(#clip1)" clip-rule="nonzero">
<path style=" stroke:none;fill-rule:evenodd;fill:rgb(8.227539%,8.616638%,8.616638%);fill-opacity:1;" d="M 40.558594 161.042969 L 40.839844 160.304688 L 50.644531 160.304688 C 52.292969 160.304688 53.765625 160.558594 55.050781 161.066406 C 56.34375 161.582031 57.3125 162.289063 57.949219 163.203125 C 58.589844 164.117188 58.914063 165.078125 58.914063 166.101563 C 58.914063 167.667969 58.308594 169.09375 57.105469 170.355469 C 55.902344 171.628906 53.945313 172.5625 51.222656 173.167969 C 53.023438 173.785156 54.355469 174.605469 55.203125 175.628906 C 56.054688 176.652344 56.480469 177.777344 56.480469 179.003906 C 56.480469 180.363281 56.128906 181.660156 55.433594 182.898438 C 54.734375 184.136719 53.839844 185.097656 52.75 185.785156 C 51.65625 186.472656 50.335938 186.972656 48.789063 187.296875 C 47.691406 187.523438 45.980469 187.640625 43.644531 187.640625 L 33.644531 187.640625 L 33.90625 186.898438 C 34.949219 186.871094 35.664063 186.769531 36.035156 186.597656 C 36.578125 186.367188 36.957031 186.066406 37.183594 185.6875 C 37.503906 185.179688 37.9375 184.011719 38.476563 182.183594 L 43.238281 165.621094 C 43.648438 164.226563 43.863281 163.242188 43.863281 162.679688 C 43.863281 162.179688 43.675781 161.785156 43.304688 161.5 C 42.933594 161.210938 42.234375 161.066406 41.203125 161.066406 C 40.976563 161.066406 40.761719 161.058594 40.558594 161.042969 Z M 44.714844 172.382813 C 45.585938 172.410156 46.214844 172.425781 46.597656 172.425781 C 49.375 172.425781 51.441406 171.820313 52.796875 170.609375 C 54.148438 169.402344 54.832031 167.890625 54.832031 166.074219 C 54.832031 164.695313 54.410156 163.621094 53.578125 162.859375 C 52.75 162.089844 51.414063 161.703125 49.585938 161.703125 C 49.097656 161.703125 48.480469 161.785156 47.730469 161.945313 Z M 40.832031 185.875 C 42.300781 186.058594 43.457031 186.15625 44.289063 186.15625 C 46.414063 186.15625 48.296875 185.523438 49.9375 184.257813 C 51.582031 182.988281 52.398438 181.269531 52.398438 179.105469 C 52.398438 177.441406 51.882813 176.148438 50.859375 175.222656 C 49.835938 174.292969 48.179688 173.828125 45.890625 173.828125 C 45.449219 173.828125 44.90625 173.855469 44.273438 173.910156 Z M 69.695313 180.054688 C 69.613281 180.71875 69.570313 181.269531 69.570313 181.710938 C 69.570313 182.898438 70.003906 183.910156 70.863281 184.742188 C 71.722656 185.570313 72.773438 185.992188 74.003906 185.992188 C 74.988281 185.992188 75.9375 185.792969 76.84375 185.398438 C 77.75 185.007813 79.105469 184.136719 80.898438 182.789063 L 81.308594 183.371094 C 78.128906 186.519531 75.089844 188.09375 72.203125 188.09375 C 70.238281 188.09375 68.761719 187.476563 67.765625 186.246094 C 66.769531 185.007813 66.273438 183.648438 66.273438 182.164063 C 66.273438 180.164063 66.890625 178.121094 68.128906 176.03125 C 69.359375 173.9375 70.914063 172.316406 72.773438 171.152344 C 74.644531 169.992188 76.5625 169.414063 78.539063 169.414063 C 79.964844 169.414063 81.015625 169.703125 81.703125 170.28125 C 82.382813 170.859375 82.726563 171.546875 82.726563 172.335938 C 82.726563 173.449219 82.277344 174.519531 81.378906 175.539063 C 80.191406 176.871094 78.445313 177.945313 76.140625 178.761719 C 74.609375 179.316406 72.464844 179.746094 69.695313 180.054688 Z M 69.839844 179.0625 C 71.875 178.835938 73.53125 178.445313 74.808594 177.894531 C 76.5 177.152344 77.769531 176.265625 78.617188 175.234375 C 79.460938 174.210938 79.878906 173.230469 79.878906 172.300781 C 79.878906 171.738281 79.703125 171.277344 79.335938 170.925781 C 78.972656 170.578125 78.453125 170.40625 77.777344 170.40625 C 76.375 170.40625 74.890625 171.132813 73.316406 172.597656 C 71.742188 174.054688 70.582031 176.210938 69.839844 179.0625 Z M 104.464844 183.222656 C 103.0625 184.898438 101.652344 186.128906 100.222656 186.910156 C 98.800781 187.703125 97.296875 188.09375 95.707031 188.09375 C 93.796875 188.09375 92.304688 187.558594 91.234375 186.484375 C 90.167969 185.414063 89.632813 183.96875 89.632813 182.164063 C 89.632813 180.109375 90.210938 178.09375 91.359375 176.109375 C 92.503906 174.128906 94.050781 172.515625 95.996094 171.277344 C 97.933594 170.035156 99.839844 169.414063 101.707031 169.414063 C 103.179688 169.414063 104.269531 169.71875 105 170.328125 C 105.71875 170.941406 106.085938 171.691406 106.085938 172.578125 C 106.085938 173.40625 105.832031 174.117188 105.320313 174.707031 C 104.949219 175.167969 104.492188 175.394531 103.941406 175.394531 C 103.527344 175.394531 103.183594 175.257813 102.910156 174.988281 C 102.636719 174.71875 102.496094 174.390625 102.496094 173.984375 C 102.496094 173.730469 102.546875 173.496094 102.648438 173.277344 C 102.746094 173.0625 102.957031 172.808594 103.265625 172.507813 C 103.582031 172.207031 103.777344 171.984375 103.835938 171.855469 C 103.90625 171.71875 103.941406 171.582031 103.941406 171.429688 C 103.941406 171.148438 103.808594 170.914063 103.554688 170.726563 C 103.164063 170.460938 102.609375 170.324219 101.886719 170.324219 C 100.554688 170.324219 99.242188 170.78125 97.933594 171.710938 C 96.636719 172.632813 95.523438 173.945313 94.601563 175.648438 C 93.488281 177.710938 92.929688 179.773438 92.929688 181.839844 C 92.929688 183.207031 93.324219 184.285156 94.113281 185.082031 C 94.898438 185.882813 95.96875 186.28125 97.328125 186.28125 C 98.375 186.28125 99.40625 186.019531 100.429688 185.503906 C 101.453125 184.988281 102.601563 184.054688 103.878906 182.699219 Z M 132.398438 169.703125 L 128.523438 183.367188 L 128.054688 185.1875 C 128.007813 185.367188 127.980469 185.515625 127.980469 185.632813 C 127.980469 185.824219 128.027344 185.992188 128.117188 186.136719 C 128.195313 186.238281 128.289063 186.292969 128.40625 186.292969 C 128.53125 186.292969 128.6875 186.195313 128.886719 186.011719 C 129.257813 185.652344 129.753906 184.863281 130.363281 183.640625 L 131.050781 184.128906 C 130.269531 185.476563 129.464844 186.480469 128.640625 187.125 C 127.816406 187.769531 127.050781 188.09375 126.351563 188.09375 C 125.863281 188.09375 125.484375 187.949219 125.21875 187.660156 C 124.949219 187.378906 124.820313 186.960938 124.820313 186.417969 C 124.820313 185.765625 124.96875 184.898438 125.265625 183.832031 L 125.710938 182.308594 C 123.78125 184.597656 122 186.195313 120.378906 187.109375 C 119.21875 187.765625 118.070313 188.09375 116.949219 188.09375 C 115.878906 188.09375 114.945313 187.695313 114.167969 186.898438 C 113.382813 186.101563 112.992188 185 112.992188 183.597656 C 112.992188 181.503906 113.6875 179.289063 115.074219 176.960938 C 116.457031 174.632813 118.222656 172.769531 120.351563 171.367188 C 122.023438 170.261719 123.601563 169.703125 125.082031 169.703125 C 125.96875 169.703125 126.703125 169.902344 127.292969 170.292969 C 127.878906 170.6875 128.324219 171.339844 128.632813 172.246094 L 129.277344 170.199219 Z M 124.984375 170.695313 C 124.050781 170.695313 123.058594 171.09375 122.007813 171.882813 C 120.515625 173.003906 119.191406 174.660156 118.03125 176.863281 C 116.867188 179.0625 116.289063 181.058594 116.289063 182.835938 C 116.289063 183.730469 116.550781 184.445313 117.066406 184.960938 C 117.582031 185.480469 118.171875 185.742188 118.839844 185.742188 C 120.496094 185.742188 122.296875 184.683594 124.234375 182.5625 C 126.605469 179.738281 127.753906 176.84375 127.679688 173.875 C 127.679688 172.753906 127.4375 171.945313 126.957031 171.441406 C 126.476563 170.941406 125.816406 170.695313 124.984375 170.695313 Z M 157.757813 169.867188 L 154.082031 182.082031 C 153.539063 183.894531 153.265625 185.042969 153.265625 185.515625 C 153.265625 185.738281 153.292969 185.902344 153.359375 186.003906 C 153.429688 186.109375 153.519531 186.15625 153.628906 186.15625 C 153.808594 186.15625 154 186.066406 154.210938 185.875 C 154.417969 185.6875 154.953125 184.871094 155.804688 183.425781 L 156.410156 183.886719 C 155.476563 185.511719 154.527344 186.679688 153.550781 187.398438 C 152.90625 187.859375 152.28125 188.09375 151.683594 188.09375 C 151.222656 188.09375 150.859375 187.949219 150.589844 187.652344 C 150.316406 187.367188 150.183594 186.980469 150.183594 186.519531 C 150.183594 186.066406 150.273438 185.46875 150.445313 184.71875 C 150.6875 183.796875 151.320313 181.667969 152.351563 178.34375 C 149.980469 182.074219 148 184.628906 146.40625 186.019531 C 144.8125 187.398438 143.339844 188.09375 141.992188 188.09375 C 141.363281 188.09375 140.824219 187.878906 140.390625 187.453125 C 139.953125 187.035156 139.734375 186.5 139.734375 185.847656 C 139.734375 184.84375 140.082031 183.296875 140.789063 181.214844 L 142.886719 174.996094 C 143.402344 173.503906 143.65625 172.578125 143.65625 172.210938 C 143.65625 172.054688 143.589844 171.917969 143.449219 171.800781 C 143.3125 171.691406 143.167969 171.628906 143.011719 171.628906 C 142.671875 171.628906 142.335938 171.730469 142 171.929688 C 141.664063 172.136719 140.902344 172.878906 139.710938 174.171875 L 139.085938 173.722656 C 140.179688 172.164063 141.332031 171.015625 142.558594 170.28125 C 143.492188 169.703125 144.351563 169.414063 145.132813 169.414063 C 145.671875 169.414063 146.117188 169.609375 146.453125 169.984375 C 146.796875 170.363281 146.96875 170.851563 146.96875 171.441406 C 146.96875 172.15625 146.660156 173.441406 146.035156 175.285156 L 143.835938 181.710938 C 143.230469 183.457031 142.929688 184.5625 142.929688 185.027344 C 142.929688 185.28125 143.011719 185.488281 143.191406 185.640625 C 143.359375 185.796875 143.59375 185.875 143.882813 185.875 C 144.34375 185.875 144.941406 185.652344 145.683594 185.207031 C 146.417969 184.769531 147.410156 183.777344 148.640625 182.253906 C 149.867188 180.71875 150.886719 179.289063 151.691406 177.949219 C 152.488281 176.609375 153.332031 174.480469 154.226563 171.558594 L 154.714844 169.867188 Z M 178.734375 169.414063 L 177.496094 175.601563 L 176.753906 175.601563 C 176.683594 173.785156 176.300781 172.464844 175.605469 171.640625 C 174.90625 170.816406 174.039063 170.40625 173 170.40625 C 172.171875 170.40625 171.511719 170.632813 171.015625 171.09375 C 170.527344 171.546875 170.28125 172.09375 170.28125 172.742188 C 170.28125 173.1875 170.375 173.605469 170.574219 174.011719 C 170.769531 174.410156 171.195313 174.976563 171.855469 175.703125 C 173.605469 177.613281 174.734375 179.050781 175.242188 180.011719 C 175.757813 180.980469 176.011719 181.894531 176.011719 182.753906 C 176.011719 184.148438 175.425781 185.394531 174.265625 186.472656 C 173.097656 187.550781 171.632813 188.09375 169.855469 188.09375 C 168.886719 188.09375 167.765625 187.867188 166.5 187.421875 C 166.0625 187.261719 165.71875 187.1875 165.46875 187.1875 C 164.863281 187.1875 164.410156 187.488281 164.101563 188.09375 L 163.351563 188.09375 L 164.589844 181.539063 L 165.332031 181.539063 C 165.414063 183.597656 165.835938 185.054688 166.605469 185.910156 C 167.375 186.761719 168.417969 187.1875 169.75 187.1875 C 170.773438 187.1875 171.585938 186.90625 172.183594 186.335938 C 172.78125 185.765625 173.085938 185.0625 173.085938 184.226563 C 173.085938 183.6875 172.972656 183.195313 172.761719 182.742188 C 172.382813 181.9375 171.59375 180.824219 170.390625 179.402344 C 169.1875 177.976563 168.417969 176.90625 168.074219 176.199219 C 167.730469 175.484375 167.558594 174.777344 167.558594 174.0625 C 167.558594 172.761719 168.03125 171.664063 168.980469 170.761719 C 169.929688 169.863281 171.144531 169.414063 172.644531 169.414063 C 173.070313 169.414063 173.460938 169.449219 173.8125 169.519531 C 174 169.558594 174.4375 169.710938 175.132813 169.972656 C 175.828125 170.234375 176.285156 170.363281 176.511719 170.363281 C 177.089844 170.363281 177.578125 170.046875 177.964844 169.414063 Z M 189.695313 180.054688 C 189.613281 180.71875 189.570313 181.269531 189.570313 181.710938 C 189.570313 182.898438 190.003906 183.910156 190.863281 184.742188 C 191.722656 185.570313 192.773438 185.992188 194.003906 185.992188 C 194.984375 185.992188 195.933594 185.792969 196.839844 185.398438 C 197.75 185.007813 199.101563 184.136719 200.894531 182.789063 L 201.308594 183.371094 C 198.125 186.519531 195.089844 188.09375 192.203125 188.09375 C 190.238281 188.09375 188.761719 187.476563 187.761719 186.246094 C 186.765625 185.007813 186.273438 183.648438 186.273438 182.164063 C 186.273438 180.164063 186.890625 178.121094 188.128906 176.03125 C 189.359375 173.9375 190.910156 172.316406 192.773438 171.152344 C 194.644531 169.992188 196.558594 169.414063 198.539063 169.414063 C 199.960938 169.414063 201.011719 169.703125 201.699219 170.28125 C 202.378906 170.859375 202.722656 171.546875 202.722656 172.335938 C 202.722656 173.449219 202.277344 174.519531 201.378906 175.539063 C 200.1875 176.871094 198.441406 177.945313 196.140625 178.761719 C 194.609375 179.316406 192.464844 179.746094 189.695313 180.054688 Z M 189.839844 179.0625 C 191.875 178.835938 193.53125 178.445313 194.808594 177.894531 C 196.5 177.152344 197.769531 176.265625 198.613281 175.234375 C 199.460938 174.210938 199.878906 173.230469 199.878906 172.300781 C 199.878906 171.738281 199.699219 171.277344 199.335938 170.925781 C 198.972656 170.578125 198.449219 170.40625 197.777344 170.40625 C 196.375 170.40625 194.890625 171.132813 193.316406 172.597656 C 191.742188 174.054688 190.582031 176.210938 189.839844 179.0625 Z M 231.332031 158.984375 L 224.234375 183.058594 C 223.882813 184.257813 223.710938 184.996094 223.710938 185.261719 C 223.710938 185.460938 223.773438 185.632813 223.882813 185.765625 C 224 185.902344 224.144531 185.96875 224.3125 185.96875 C 224.542969 185.96875 224.792969 185.851563 225.058594 185.625 C 225.683594 185.0625 226.351563 184.175781 227.039063 182.96875 L 227.65625 183.59375 C 226.441406 185.378906 225.320313 186.625 224.296875 187.332031 C 223.539063 187.839844 222.820313 188.09375 222.140625 188.09375 C 221.652344 188.09375 221.246094 187.921875 220.921875 187.578125 C 220.59375 187.234375 220.429688 186.84375 220.429688 186.390625 C 220.429688 185.910156 220.65625 184.90625 221.101563 183.398438 L 226.757813 164.425781 C 227.203125 162.898438 227.421875 162.019531 227.421875 161.792969 C 227.421875 161.476563 227.292969 161.214844 227.039063 161.011719 C 226.785156 160.796875 226.386719 160.695313 225.835938 160.695313 C 225.527344 160.695313 225.046875 160.742188 224.40625 160.839844 L 224.40625 160.097656 Z M 244.742188 161.332031 C 245.304688 161.332031 245.785156 161.527344 246.179688 161.917969 C 246.570313 162.308594 246.761719 162.789063 246.761719 163.355469 C 246.761719 163.902344 246.5625 164.378906 246.164063 164.777344 C 245.765625 165.175781 245.292969 165.375 244.742188 165.375 C 244.191406 165.375 243.71875 165.175781 243.320313 164.777344 C 242.921875 164.378906 242.722656 163.902344 242.722656 163.355469 C 242.722656 162.789063 242.914063 162.308594 243.304688 161.917969 C 243.699219 161.527344 244.179688 161.332031 244.742188 161.332031 Z M 245.621094 169.332031 L 241.386719 183.613281 C 241.105469 184.574219 240.960938 185.152344 240.960938 185.34375 C 240.960938 185.550781 241.023438 185.714844 241.132813 185.847656 C 241.25 185.96875 241.386719 186.039063 241.546875 186.039063 C 241.726563 186.039063 241.945313 185.9375 242.199219 185.730469 C 242.886719 185.140625 243.582031 184.28125 244.28125 183.167969 L 244.988281 183.632813 C 244.117188 185.015625 243.09375 186.164063 241.917969 187.078125 C 241.050781 187.757813 240.21875 188.09375 239.421875 188.09375 C 238.902344 188.09375 238.46875 187.929688 238.136719 187.605469 C 237.808594 187.28125 237.636719 186.878906 237.636719 186.390625 C 237.636719 185.886719 237.820313 185.054688 238.179688 183.886719 L 240.984375 174.777344 C 241.414063 173.304688 241.628906 172.382813 241.628906 172.011719 C 241.628906 171.71875 241.527344 171.476563 241.320313 171.292969 C 241.105469 171.097656 240.824219 171.007813 240.460938 171.007813 C 240.164063 171.007813 239.558594 171.085938 238.632813 171.230469 L 238.632813 170.445313 Z M 264.925781 169.867188 L 264.5625 171.1875 L 261.578125 171.1875 L 259.152344 180.109375 C 258.074219 183.957031 257.039063 186.941406 256.035156 189.054688 C 254.617188 192.039063 253.097656 194.101563 251.464844 195.242188 C 250.226563 196.113281 248.984375 196.546875 247.738281 196.546875 C 246.933594 196.546875 246.246094 196.304688 245.675781 195.820313 C 245.257813 195.480469 245.050781 195.046875 245.050781 194.511719 C 245.050781 194.078125 245.222656 193.707031 245.5625 193.390625 C 245.902344 193.078125 246.324219 192.917969 246.816406 192.917969 C 247.183594 192.917969 247.484375 193.035156 247.730469 193.261719 C 247.980469 193.488281 248.101563 193.75 248.101563 194.046875 C 248.101563 194.339844 247.964844 194.621094 247.683594 194.875 C 247.472656 195.0625 247.359375 195.207031 247.359375 195.296875 C 247.359375 195.417969 247.410156 195.515625 247.5 195.578125 C 247.621094 195.675781 247.808594 195.722656 248.0625 195.722656 C 248.632813 195.722656 249.230469 195.542969 249.863281 195.179688 C 250.496094 194.816406 251.058594 194.273438 251.546875 193.558594 C 252.039063 192.835938 252.507813 191.796875 252.949219 190.4375 C 253.148438 189.878906 253.675781 188.023438 254.550781 184.882813 L 258.4375 171.1875 L 254.496094 171.1875 L 254.78125 169.867188 C 256.027344 169.867188 256.898438 169.792969 257.394531 169.636719 C 257.890625 169.484375 258.34375 169.1875 258.753906 168.753906 C 259.167969 168.316406 259.65625 167.496094 260.226563 166.308594 C 260.988281 164.695313 261.722656 163.449219 262.425781 162.5625 C 263.378906 161.367188 264.390625 160.476563 265.441406 159.875 C 266.5 159.277344 267.488281 158.984375 268.425781 158.984375 C 269.40625 158.984375 270.199219 159.246094 270.796875 159.765625 C 271.394531 160.289063 271.6875 160.851563 271.6875 161.464844 C 271.6875 161.9375 271.539063 162.335938 271.226563 162.660156 C 270.917969 162.984375 270.527344 163.148438 270.039063 163.148438 C 269.628906 163.148438 269.289063 163.023438 269.027344 162.785156 C 268.769531 162.542969 268.636719 162.246094 268.636719 161.910156 C 268.636719 161.699219 268.71875 161.429688 268.882813 161.113281 C 269.050781 160.796875 269.132813 160.585938 269.132813 160.476563 C 269.132813 160.289063 269.078125 160.144531 268.96875 160.046875 C 268.800781 159.917969 268.570313 159.847656 268.257813 159.847656 C 267.484375 159.847656 266.789063 160.125 266.171875 160.679688 C 265.34375 161.414063 264.601563 162.5625 263.949219 164.125 C 263.613281 164.941406 262.953125 166.859375 261.964844 169.867188 Z M 273.566406 180.054688 C 273.484375 180.71875 273.441406 181.269531 273.441406 181.710938 C 273.441406 182.898438 273.875 183.910156 274.734375 184.742188 C 275.59375 185.570313 276.644531 185.992188 277.875 185.992188 C 278.855469 185.992188 279.804688 185.792969 280.710938 185.398438 C 281.621094 185.007813 282.972656 184.136719 284.765625 182.789063 L 285.179688 183.371094 C 281.996094 186.519531 278.960938 188.09375 276.074219 188.09375 C 274.109375 188.09375 272.628906 187.476563 271.632813 186.246094 C 270.636719 185.007813 270.144531 183.648438 270.144531 182.164063 C 270.144531 180.164063 270.761719 178.121094 272 176.03125 C 273.230469 173.9375 274.78125 172.316406 276.644531 171.152344 C 278.511719 169.992188 280.429688 169.414063 282.410156 169.414063 C 283.832031 169.414063 284.882813 169.703125 285.570313 170.28125 C 286.25 170.859375 286.59375 171.546875 286.59375 172.335938 C 286.59375 173.449219 286.148438 174.519531 285.246094 175.539063 C 284.058594 176.871094 282.3125 177.945313 280.011719 178.761719 C 278.480469 179.316406 276.335938 179.746094 273.566406 180.054688 Z M 273.710938 179.0625 C 275.742188 178.835938 277.398438 178.445313 278.679688 177.894531 C 280.367188 177.152344 281.640625 176.265625 282.484375 175.234375 C 283.332031 174.210938 283.75 173.230469 283.75 172.300781 C 283.75 171.738281 283.570313 171.277344 283.207031 170.925781 C 282.84375 170.578125 282.320313 170.40625 281.648438 170.40625 C 280.246094 170.40625 278.761719 171.132813 277.1875 172.597656 C 275.613281 174.054688 274.453125 176.210938 273.710938 179.0625 Z M 311.652344 169.414063 L 309.046875 178.507813 C 310.242188 176.371094 311.265625 174.761719 312.105469 173.691406 C 313.410156 172.019531 314.6875 170.808594 315.925781 170.0625 C 316.660156 169.628906 317.425781 169.414063 318.222656 169.414063 C 318.914063 169.414063 319.484375 169.640625 319.9375 170.089844 C 320.394531 170.535156 320.621094 171.105469 320.621094 171.808594 C 320.621094 172.453125 320.457031 173.304688 320.125 174.347656 L 318.585938 179.402344 C 320.902344 175.3125 323.085938 172.4375 325.15625 170.78125 C 326.304688 169.867188 327.4375 169.414063 328.558594 169.414063 C 329.210938 169.414063 329.738281 169.648438 330.160156 170.109375 C 330.578125 170.570313 330.789063 171.292969 330.789063 172.261719 C 330.789063 173.03125 330.652344 173.839844 330.378906 174.707031 L 327.863281 182.453125 C 327.3125 184.140625 327.039063 185.078125 327.039063 185.261719 C 327.039063 185.441406 327.09375 185.597656 327.203125 185.722656 C 327.277344 185.8125 327.375 185.859375 327.492188 185.859375 C 327.617188 185.859375 327.828125 185.738281 328.132813 185.496094 C 328.820313 184.914063 329.464844 184.136719 330.070313 183.167969 L 330.734375 183.59375 C 330.414063 184.128906 329.84375 184.851563 329.023438 185.765625 C 328.207031 186.679688 327.503906 187.289063 326.929688 187.613281 C 326.34375 187.9375 325.816406 188.09375 325.320313 188.09375 C 324.875 188.09375 324.496094 187.9375 324.195313 187.621094 C 323.890625 187.304688 323.738281 186.910156 323.738281 186.453125 C 323.738281 185.804688 324.054688 184.511719 324.695313 182.5625 L 326.8125 176.09375 C 327.292969 174.605469 327.546875 173.777344 327.582031 173.621094 C 327.621094 173.367188 327.648438 173.121094 327.648438 172.871094 C 327.648438 172.542969 327.566406 172.273438 327.410156 172.089844 C 327.238281 171.902344 327.039063 171.808594 326.824219 171.808594 C 326.214844 171.808594 325.566406 172.09375 324.886719 172.671875 C 322.886719 174.378906 321.019531 176.769531 319.28125 179.847656 C 318.132813 181.875 317.058594 184.472656 316.054688 187.640625 L 313.003906 187.640625 L 316.675781 175.46875 C 317.074219 174.148438 317.273438 173.277344 317.273438 172.832031 C 317.273438 172.464844 317.199219 172.199219 317.046875 172.027344 C 316.894531 171.855469 316.710938 171.765625 316.488281 171.765625 C 316.035156 171.765625 315.546875 171.921875 315.039063 172.246094 C 314.214844 172.769531 313.148438 173.890625 311.84375 175.605469 C 310.546875 177.324219 309.535156 178.96875 308.820313 180.535156 C 308.46875 181.277344 307.652344 183.640625 306.359375 187.640625 L 303.398438 187.640625 L 307.148438 174.609375 L 307.636719 172.921875 C 307.734375 172.660156 307.78125 172.472656 307.78125 172.351563 C 307.78125 172.054688 307.644531 171.785156 307.378906 171.546875 C 307.101563 171.3125 306.757813 171.195313 306.339844 171.195313 C 306.167969 171.195313 305.679688 171.277344 304.882813 171.4375 L 304.710938 170.695313 Z M 358.054688 169.703125 L 354.175781 183.367188 L 353.710938 185.1875 C 353.660156 185.367188 353.632813 185.515625 353.632813 185.632813 C 353.632813 185.824219 353.683594 185.992188 353.773438 186.136719 C 353.847656 186.238281 353.945313 186.292969 354.0625 186.292969 C 354.183594 186.292969 354.34375 186.195313 354.542969 186.011719 C 354.914063 185.652344 355.40625 184.863281 356.019531 183.640625 L 356.707031 184.128906 C 355.921875 185.476563 355.117188 186.480469 354.292969 187.125 C 353.46875 187.769531 352.707031 188.09375 352.003906 188.09375 C 351.519531 188.09375 351.140625 187.949219 350.871094 187.660156 C 350.605469 187.378906 350.472656 186.960938 350.472656 186.417969 C 350.472656 185.765625 350.625 184.898438 350.921875 183.832031 L 351.367188 182.308594 C 349.4375 184.597656 347.65625 186.195313 346.035156 187.109375 C 344.871094 187.765625 343.726563 188.09375 342.605469 188.09375 C 341.53125 188.09375 340.597656 187.695313 339.820313 186.898438 C 339.039063 186.101563 338.644531 185 338.644531 183.597656 C 338.644531 181.503906 339.339844 179.289063 340.726563 176.960938 C 342.109375 174.632813 343.875 172.769531 346.007813 171.367188 C 347.675781 170.261719 349.257813 169.703125 350.734375 169.703125 C 351.621094 169.703125 352.355469 169.902344 352.949219 170.292969 C 353.53125 170.6875 353.976563 171.339844 354.289063 172.246094 L 354.933594 170.199219 Z M 350.636719 170.695313 C 349.703125 170.695313 348.714844 171.09375 347.664063 171.882813 C 346.171875 173.003906 344.84375 174.660156 343.683594 176.863281 C 342.523438 179.0625 341.945313 181.058594 341.945313 182.835938 C 341.945313 183.730469 342.207031 184.445313 342.722656 184.960938 C 343.238281 185.480469 343.828125 185.742188 344.496094 185.742188 C 346.152344 185.742188 347.953125 184.683594 349.890625 182.5625 C 352.261719 179.738281 353.40625 176.84375 353.332031 173.875 C 353.332031 172.753906 353.089844 171.945313 352.609375 171.441406 C 352.128906 170.941406 351.46875 170.695313 350.636719 170.695313 Z M 374.683594 164.425781 L 373.050781 169.867188 L 375.824219 169.867188 L 375.496094 171.148438 L 372.664063 171.148438 L 369.015625 183.035156 C 368.546875 184.382813 368.3125 185.253906 368.3125 185.652344 C 368.3125 185.867188 368.363281 186.03125 368.457031 186.140625 C 368.554688 186.257813 368.664063 186.3125 368.796875 186.3125 C 369.097656 186.3125 369.496094 186.09375 369.984375 185.652344 C 370.273438 185.386719 370.917969 184.5625 371.910156 183.171875 L 372.574219 183.683594 C 371.40625 185.449219 370.308594 186.679688 369.261719 187.371094 C 368.554688 187.851563 367.839844 188.09375 367.113281 188.09375 C 366.554688 188.09375 366.101563 187.914063 365.742188 187.550781 C 365.386719 187.1875 365.207031 186.71875 365.207031 186.148438 C 365.207031 185.425781 365.433594 184.3125 365.886719 182.824219 L 369.421875 171.148438 L 366.347656 171.148438 L 366.546875 170.355469 C 368.027344 169.953125 369.277344 169.351563 370.308594 168.554688 C 371.339844 167.765625 372.5 166.382813 373.796875 164.425781 Z M 391.363281 164.425781 L 389.730469 169.867188 L 392.503906 169.867188 L 392.175781 171.148438 L 389.34375 171.148438 L 385.695313 183.035156 C 385.226563 184.382813 384.992188 185.253906 384.992188 185.652344 C 384.992188 185.867188 385.042969 186.03125 385.136719 186.140625 C 385.234375 186.257813 385.34375 186.3125 385.476563 186.3125 C 385.777344 186.3125 386.175781 186.09375 386.664063 185.652344 C 386.953125 185.386719 387.597656 184.5625 388.589844 183.171875 L 389.253906 183.683594 C 388.085938 185.449219 386.988281 186.679688 385.941406 187.371094 C 385.234375 187.851563 384.519531 188.09375 383.789063 188.09375 C 383.234375 188.09375 382.78125 187.914063 382.421875 187.550781 C 382.066406 187.1875 381.886719 186.71875 381.886719 186.148438 C 381.886719 185.425781 382.113281 184.3125 382.566406 182.824219 L 386.101563 171.148438 L 383.027344 171.148438 L 383.226563 170.355469 C 384.707031 169.953125 385.957031 169.351563 386.988281 168.554688 C 388.015625 167.765625 389.179688 166.382813 390.476563 164.425781 Z M 401.597656 180.054688 C 401.515625 180.71875 401.472656 181.269531 401.472656 181.710938 C 401.472656 182.898438 401.90625 183.910156 402.765625 184.742188 C 403.625 185.570313 404.675781 185.992188 405.90625 185.992188 C 406.890625 185.992188 407.835938 185.792969 408.746094 185.398438 C 409.652344 185.007813 411.003906 184.136719 412.800781 182.789063 L 413.210938 183.371094 C 410.03125 186.519531 406.992188 188.09375 404.105469 188.09375 C 402.140625 188.09375 400.664063 187.476563 399.667969 186.246094 C 398.671875 185.007813 398.175781 183.648438 398.175781 182.164063 C 398.175781 180.164063 398.792969 178.121094 400.03125 176.03125 C 401.261719 173.9375 402.8125 172.316406 404.675781 171.152344 C 406.546875 169.992188 408.464844 169.414063 410.441406 169.414063 C 411.863281 169.414063 412.914063 169.703125 413.601563 170.28125 C 414.285156 170.859375 414.628906 171.546875 414.628906 172.335938 C 414.628906 173.449219 414.179688 174.519531 413.28125 175.539063 C 412.089844 176.871094 410.347656 177.945313 408.042969 178.761719 C 406.511719 179.316406 404.367188 179.746094 401.597656 180.054688 Z M 401.742188 179.0625 C 403.777344 178.835938 405.433594 178.445313 406.710938 177.894531 C 408.402344 177.152344 409.671875 176.265625 410.519531 175.234375 C 411.363281 174.210938 411.78125 173.230469 411.78125 172.300781 C 411.78125 171.738281 411.601563 171.277344 411.238281 170.925781 C 410.875 170.578125 410.351563 170.40625 409.679688 170.40625 C 408.277344 170.40625 406.792969 171.132813 405.21875 172.597656 C 403.644531 174.054688 402.484375 176.210938 401.742188 179.0625 Z M 422.421875 170.527344 L 429.355469 169.414063 L 426.53125 179.207031 C 428.902344 175.195313 431.058594 172.382813 432.996094 170.78125 C 434.089844 169.867188 434.984375 169.414063 435.675781 169.414063 C 436.125 169.414063 436.472656 169.546875 436.734375 169.808594 C 436.988281 170.074219 437.121094 170.453125 437.121094 170.949219 C 437.121094 171.839844 436.894531 172.6875 436.433594 173.496094 C 436.109375 174.101563 435.648438 174.40625 435.046875 174.40625 C 434.734375 174.40625 434.46875 174.300781 434.246094 174.101563 C 434.019531 173.902344 433.882813 173.59375 433.835938 173.175781 C 433.808594 172.921875 433.746094 172.75 433.648438 172.671875 C 433.539063 172.5625 433.417969 172.507813 433.265625 172.507813 C 433.039063 172.507813 432.824219 172.5625 432.617188 172.664063 C 432.277344 172.859375 431.738281 173.378906 431.03125 174.238281 C 429.910156 175.550781 428.703125 177.257813 427.394531 179.34375 C 426.832031 180.230469 426.351563 181.230469 425.945313 182.34375 C 425.382813 183.875 425.058594 184.789063 424.976563 185.097656 L 424.316406 187.640625 L 421.246094 187.640625 L 424.851563 175.105469 C 425.285156 173.664063 425.5 172.632813 425.5 172.011719 C 425.5 171.773438 425.402344 171.574219 425.195313 171.410156 C 424.9375 171.195313 424.59375 171.09375 424.179688 171.09375 C 423.917969 171.09375 423.429688 171.148438 422.730469 171.269531 Z M 456.699219 169.414063 L 455.464844 175.601563 L 454.71875 175.601563 C 454.652344 173.785156 454.265625 172.464844 453.574219 171.640625 C 452.871094 170.816406 452.007813 170.40625 450.96875 170.40625 C 450.136719 170.40625 449.476563 170.632813 448.980469 171.09375 C 448.496094 171.546875 448.246094 172.09375 448.246094 172.742188 C 448.246094 173.1875 448.34375 173.605469 448.542969 174.011719 C 448.734375 174.410156 449.160156 174.976563 449.820313 175.703125 C 451.574219 177.613281 452.699219 179.050781 453.207031 180.011719 C 453.722656 180.980469 453.976563 181.894531 453.976563 182.753906 C 453.976563 184.148438 453.394531 185.394531 452.234375 186.472656 C 451.066406 187.550781 449.601563 188.09375 447.820313 188.09375 C 446.851563 188.09375 445.730469 187.867188 444.46875 187.421875 C 444.027344 187.261719 443.683594 187.1875 443.4375 187.1875 C 442.832031 187.1875 442.378906 187.488281 442.070313 188.09375 L 441.320313 188.09375 L 442.558594 181.539063 L 443.300781 181.539063 C 443.382813 183.597656 443.800781 185.054688 444.570313 185.910156 C 445.339844 186.761719 446.386719 187.1875 447.71875 187.1875 C 448.742188 187.1875 449.554688 186.90625 450.152344 186.335938 C 450.75 185.765625 451.050781 185.0625 451.050781 184.226563 C 451.050781 183.6875 450.941406 183.195313 450.726563 182.742188 C 450.351563 181.9375 449.558594 180.824219 448.355469 179.402344 C 447.15625 177.976563 446.386719 176.90625 446.042969 176.199219 C 445.699219 175.484375 445.527344 174.777344 445.527344 174.0625 C 445.527344 172.761719 446 171.664063 446.949219 170.761719 C 447.898438 169.863281 449.113281 169.414063 450.609375 169.414063 C 451.039063 169.414063 451.429688 169.449219 451.78125 169.519531 C 451.964844 169.558594 452.40625 169.710938 453.097656 169.972656 C 453.792969 170.234375 454.253906 170.363281 454.480469 170.363281 C 455.058594 170.363281 455.546875 170.046875 455.929688 169.414063 Z M 456.699219 169.414063 "/>
</g>
<g clip-path="url(#clip2)" clip-rule="nonzero">
<path style=" stroke:none;fill-rule:evenodd;fill:rgb(26.660156%,66.209412%,81.25%);fill-opacity:1;" d="M 0.664063 106.425781 L 9.121094 89.46875 C 14.03125 92.890625 20.109375 95.898438 26.210938 96.824219 C 32.9375 97.84375 35.097656 93.015625 34.878906 90.160156 C 34.539063 85.710938 24.710938 84.378906 21.808594 83.828125 C 4.085938 80.457031 0.0117188 60.292969 12.550781 47.832031 C 17.960938 42.457031 26.609375 40.5625 34.265625 40.273438 C 42.507813 39.964844 49.453125 41.367188 56.3125 45.082031 L 48.585938 60.609375 C 44.566406 57.640625 34.96875 55.820313 30.082031 58.84375 C 29.132813 59.429688 28.484375 60.902344 28.488281 62.191406 C 28.503906 66.277344 33.160156 66.570313 40.003906 68.277344 C 50.472656 70.894531 58.132813 76.359375 58.171875 87.65625 C 58.230469 104.703125 43.851563 114.515625 28.035156 114.515625 C 18.320313 114.515625 9.054688 111.203125 0.664063 106.425781 Z M 171.535156 67.890625 C 170.5625 61.21875 165.503906 56.152344 158.167969 56.152344 C 149.820313 56.152344 145.765625 60.992188 144.351563 67.890625 Z M 193 83.539063 L 143.957031 83.796875 C 144.035156 92.976563 150.714844 97.808594 157.738281 97.714844 C 163.375 97.640625 166.476563 96.496094 169.144531 92.777344 L 191.832031 92.753906 C 190.035156 98.460938 184.664063 106.066406 178.585938 109.589844 C 173.347656 112.621094 166.792969 114.398438 159.058594 114.398438 C 147.523438 114.398438 138.269531 110.789063 131.320313 104.167969 C 124.34375 97.53125 120.859375 88.804688 120.859375 77.953125 C 120.859375 67.289063 124.34375 58.425781 131.296875 51.367188 C 138.269531 44.3125 147.078125 40.792969 157.714844 40.792969 C 168.667969 40.792969 177.320313 44.359375 183.644531 51.507813 C 189.96875 58.65625 192.441406 68.464844 193.144531 80.871094 L 193.292969 83.511719 L 193 83.511719 Z M 202.132813 83.511719 L 202.132813 43.359375 L 223.472656 43.359375 L 223.472656 58.46875 C 225.597656 52.941406 227.769531 49.59375 231.304688 46.675781 C 236.386719 42.476563 243.015625 41.929688 250.160156 42.46875 L 250.078125 63.855469 C 248.785156 63.398438 245.152344 62.078125 243.902344 61.875 C 242.632813 61.667969 241.421875 61.570313 240.238281 61.570313 C 234.96875 61.570313 230.902344 63.257813 228.035156 66.621094 C 225.175781 69.976563 224.578125 74.753906 224.578125 80.929688 L 224.578125 83.511719 Z M 260.742188 -0.0546875 L 282.84375 -0.0546875 L 282.84375 83.511719 L 260.742188 83.511719 Z M 296.054688 15.613281 C 296.054688 12.1875 297.21875 9.289063 299.558594 6.878906 C 301.886719 4.476563 304.683594 3.257813 307.980469 3.257813 C 311.382813 3.257813 314.21875 4.453125 316.507813 6.8125 C 318.804688 9.179688 319.953125 12.101563 319.953125 15.613281 C 319.953125 19.125 318.785156 22.09375 316.445313 24.546875 C 314.117188 26.992188 311.300781 28.230469 307.980469 28.230469 C 304.722656 28.230469 301.921875 26.976563 299.578125 24.480469 C 297.234375 21.988281 296.054688 19.039063 296.054688 15.613281 Z M 297.171875 43.359375 L 318.832031 43.359375 L 318.832031 83.511719 L 297.171875 83.511719 Z M 333.710938 83.511719 L 333.710938 43.132813 L 354.601563 43.132813 L 354.601563 56.140625 C 357.519531 50.917969 360.21875 47.097656 364.066406 44.671875 C 367.890625 42.261719 372.503906 41.050781 377.851563 41.050781 C 381.910156 41.050781 385.503906 41.722656 388.652344 43.046875 C 391.804688 44.390625 394.382813 46.296875 396.347656 48.8125 C 398.019531 50.960938 399.183594 53.605469 399.878906 56.683594 C 400.578125 59.785156 400.9375 64.402344 400.9375 70.535156 L 400.9375 83.511719 L 378.867188 83.511719 L 378.867188 72.898438 C 378.867188 67.761719 378.042969 64.054688 376.414063 61.710938 C 374.785156 59.394531 372.183594 58.222656 368.589844 58.222656 C 364.003906 58.222656 361.335938 59.953125 359.230469 63.425781 C 357.128906 66.890625 356.082031 72.53125 356.082031 80.335938 L 356.082031 83.511719 Z M 466.207031 76.199219 C 466.207031 67.421875 459.867188 60.898438 451.234375 60.898438 C 442.128906 60.898438 435.609375 67.117188 435.609375 76.277344 C 435.609375 86.296875 440.808594 93.394531 451.460938 93.394531 C 462.046875 93.394531 466.207031 86.085938 466.207031 76.199219 Z M 487.613281 43.105469 L 487.613281 114.296875 C 487.613281 135.667969 472.019531 146.859375 449.894531 146.859375 C 434.371094 146.859375 418.132813 140.644531 413.953125 123.4375 L 440.210938 123.4375 C 442.355469 127.625 447.824219 127.878906 451.484375 127.878906 C 464.738281 127.878906 465.277344 115.886719 465.277344 108.816406 L 465.277344 102.308594 C 460.226563 111.484375 452.355469 113.691406 441.984375 113.601563 C 424.207031 113.453125 412.371094 96.644531 412.371094 78.253906 C 412.371094 58.726563 425.019531 40.789063 443.335938 40.789063 C 453.792969 40.789063 460.710938 43.050781 465.746094 52.039063 L 465.746094 43.105469 Z M 487.613281 43.105469 "/>
</g>
<path style=" stroke:none;fill-rule:evenodd;fill:rgb(26.660156%,66.209412%,81.25%);fill-opacity:1;" d="M 78.285156 83.734375 L 78.285156 65.492188 L 62.003906 65.492188 L 62.003906 43.285156 L 78.285156 43.285156 L 78.285156 25.28125 L 99.65625 25.28125 L 99.65625 43.285156 L 117.074219 43.285156 L 117.074219 65.492188 L 99.65625 65.492188 L 99.65625 83.734375 Z M 78.285156 83.734375 "/>
</g>
</svg>
